<svg width="22" height="22" viewBox="0 0 22 22" fill="none" xmlns="http://www.w3.org/2000/svg">
<path fill-rule="evenodd" clip-rule="evenodd" d="M6.55992 0.230592H15.6894C16.2593 0.230572 16.7433 0.230562 17.1432 0.271912C17.569 0.315932 17.9625 0.411532 18.3343 0.641302C18.7061 0.871072 18.9676 1.1803 19.1974 1.54147C19.4132 1.88069 19.6296 2.31356 19.8845 2.82339L19.901 2.85633C19.9107 2.87577 19.9196 2.89563 19.9276 2.91585L21.3312 6.46399C21.4982 6.88618 21.6833 7.41289 21.7374 7.95187C21.7928 8.50317 21.7168 9.13469 21.2848 9.68249C20.9315 10.1306 20.4402 10.4669 19.8747 10.6269V20.2306H21.1247C21.5389 20.2306 21.8747 20.5664 21.8747 20.9806C21.8747 21.3948 21.5389 21.7306 21.1247 21.7306H1.12466C0.710454 21.7306 0.374664 21.3948 0.374664 20.9806C0.374664 20.5664 0.710454 20.2306 1.12466 20.2306H2.37466V10.627C1.80912 10.4669 1.31778 10.1306 0.964414 9.68249C0.532454 9.13469 0.456484 8.50316 0.511844 7.95186C0.565964 7.41288 0.751054 6.88618 0.918064 6.46399L2.32167 2.91585C2.32967 2.89563 2.33854 2.87577 2.34827 2.85633L2.36476 2.82334C2.61964 2.31354 2.83605 1.88068 3.05189 1.54147C3.2817 1.1803 3.54319 0.871072 3.91497 0.641302C4.28674 0.411532 4.68027 0.315932 5.10608 0.271912C5.506 0.230562 5.98995 0.230572 6.55992 0.230592ZM17.1246 9.86809C17.4606 10.2239 17.8905 10.4902 18.3747 10.6271V20.2306H14.3747V17.4484C14.3747 17.0086 14.3747 16.6292 14.3465 16.318C14.3167 15.9888 14.2506 15.6628 14.0733 15.3556C13.8758 15.0136 13.5917 14.7295 13.2497 14.532C12.9425 14.3547 12.6165 14.2886 12.2874 14.2588C11.9761 14.2306 11.5967 14.2306 11.1569 14.2306H11.0925C10.6527 14.2306 10.2733 14.2306 9.96196 14.2588C9.63286 14.2886 9.30686 14.3547 8.99966 14.532C8.65762 14.7295 8.37358 15.0136 8.1761 15.3556C7.99873 15.6628 7.93268 15.9888 7.90284 16.318C7.87463 16.6292 7.87464 17.0086 7.87466 17.4483V20.2306H3.87466V10.6271C4.35879 10.4901 4.78864 10.2239 5.12458 9.86809C5.62596 10.3992 6.33656 10.7306 7.12457 10.7306C7.91259 10.7306 8.62319 10.3992 9.12458 9.86809C9.62596 10.3992 10.3366 10.7306 11.1246 10.7306C11.9126 10.7306 12.6232 10.3992 13.1246 9.86809C13.626 10.3992 14.3366 10.7306 15.1246 10.7306C15.9126 10.7306 16.6232 10.3992 17.1246 9.86809ZM9.37466 20.2306H12.8747V17.4806C12.8747 16.9995 12.874 16.6888 12.8526 16.4533C12.8322 16.2282 12.7978 16.1465 12.7742 16.1056C12.7084 15.9916 12.6137 15.8969 12.4997 15.8311C12.4588 15.8075 12.3771 15.7731 12.152 15.7527C11.9165 15.7313 11.6058 15.7306 11.1247 15.7306C10.6436 15.7306 10.3329 15.7313 10.0974 15.7527C9.87226 15.7731 9.79056 15.8075 9.74966 15.8311C9.63566 15.8969 9.54096 15.9916 9.47516 16.1056C9.45156 16.1465 9.41716 16.2282 9.39676 16.4533C9.37536 16.6888 9.37466 16.9995 9.37466 17.4806V20.2306ZM5.87457 7.98059C5.87457 8.67095 6.43422 9.23059 7.12457 9.23059C7.81493 9.23059 8.37457 8.67095 8.37457 7.98059C8.37457 7.56638 8.71036 7.23059 9.12457 7.23059C9.53876 7.23059 9.87456 7.56638 9.87456 7.98059C9.87456 8.67095 10.4343 9.23059 11.1246 9.23059C11.815 9.23059 12.3746 8.67095 12.3746 7.98059C12.3746 7.56638 12.7104 7.23059 13.1246 7.23059C13.5388 7.23059 13.8746 7.56638 13.8746 7.98059C13.8746 8.67095 14.4343 9.23059 15.1246 9.23059C15.815 9.23059 16.3746 8.67095 16.3746 7.98059C16.3746 7.56638 16.7104 7.23059 17.1246 7.23059C17.5388 7.23059 17.8746 7.56638 17.8746 7.98059C17.8746 8.67095 18.4343 9.23059 19.1246 9.23059C19.5226 9.23059 19.8769 9.04549 20.107 8.75364C20.2209 8.60918 20.276 8.41153 20.2449 8.10173C20.2126 7.77962 20.0937 7.41334 19.9364 7.01577L18.5448 3.49798C18.2771 2.96263 18.0982 2.60808 17.9318 2.34671C17.7719 2.09529 17.6572 1.98621 17.5457 1.91728C17.4342 1.84835 17.2853 1.7946 16.9889 1.76395C16.6752 1.73152 16.2693 1.73059 15.6525 1.73059H6.5968C5.97999 1.73059 5.57406 1.73152 5.26035 1.76395C4.96393 1.7946 4.8151 1.84835 4.70356 1.91728C4.59203 1.98621 4.4774 2.09529 4.31742 2.34671C4.15112 2.60808 3.97221 2.96263 3.70449 3.49798L2.31289 7.01577C2.15561 7.41334 2.03668 7.77962 2.00433 8.10174C1.97322 8.41154 2.02832 8.6092 2.14225 8.75366C2.37236 9.04549 2.72662 9.23059 3.12457 9.23059C3.81493 9.23059 4.37457 8.67095 4.37457 7.98059C4.37457 7.56638 4.71036 7.23059 5.12457 7.23059C5.53879 7.23059 5.87457 7.56638 5.87457 7.98059Z" fill="#282828"/>
</svg>
